<?xml version="1.0" encoding="UTF-8" standalone="no"?>
<!-- Created with Inkscape (http://www.inkscape.org/) -->

<svg
   xmlns:dc="http://purl.org/dc/elements/1.1/"
   xmlns:cc="http://creativecommons.org/ns#"
   xmlns:rdf="http://www.w3.org/1999/02/22-rdf-syntax-ns#"
   xmlns:svg="http://www.w3.org/2000/svg"
   xmlns="http://www.w3.org/2000/svg"
   xmlns:sodipodi="http://sodipodi.sourceforge.net/DTD/sodipodi-0.dtd"
   xmlns:inkscape="http://www.inkscape.org/namespaces/inkscape"
   width="28.375"
   height="50.875"
   id="svg2"
   version="1.1"
   inkscape:version="0.48.4 r9939"
   sodipodi:docname="arrow.svg">
  <defs
     id="defs4">
    <marker
       inkscape:stockid="Arrow1Lstart"
       orient="auto"
       refY="0"
       refX="0"
       id="Arrow1Lstart"
       style="overflow:visible">
      <path
         id="path3798"
         d="M 0,0 5,-5 -12.5,0 5,5 0,0 z"
         style="fill-rule:evenodd;stroke:#000000;stroke-width:1pt"
         transform="matrix(0.8,0,0,0.8,10,0)"
         inkscape:connector-curvature="0" />
    </marker>
  </defs>
  <sodipodi:namedview
     id="base"
     pagecolor="#ffffff"
     bordercolor="#666666"
     borderopacity="1.0"
     inkscape:pageopacity="0.0"
     inkscape:pageshadow="2"
     inkscape:zoom="8"
     inkscape:cx="24.524681"
     inkscape:cy="38.185856"
     inkscape:document-units="px"
     inkscape:current-layer="layer1"
     showgrid="false"
     inkscape:window-width="1366"
     inkscape:window-height="742"
     inkscape:window-x="0"
     inkscape:window-y="0"
     inkscape:window-maximized="1"
     fit-margin-top="0"
     fit-margin-left="0"
     fit-margin-right="0"
     fit-margin-bottom="0" />
  <metadata
     id="metadata7">
    <rdf:RDF>
      <cc:Work
         rdf:about="">
        <dc:format>image/svg+xml</dc:format>
        <dc:type
           rdf:resource="http://purl.org/dc/dcmitype/StillImage" />
        <dc:title />
      </cc:Work>
    </rdf:RDF>
  </metadata>
  <g
     inkscape:label="Layer 1"
     inkscape:groupmode="layer"
     id="layer1"
     transform="translate(-356,-429.86218)">
    <path
       style="fill:none;stroke:#66ffff;stroke-width:5;stroke-linecap:square;stroke-linejoin:round;stroke-miterlimit:4;stroke-opacity:1;stroke-dasharray:none;marker-start:none"
       d="m 358.5,432.36218 23.375,23.375 -22.5,22.5"
       id="path3792"
       inkscape:connector-curvature="0" />
    <circle
       cx="372"
       cy="431"
       r="10"
       style="stroke:#ff0000;stroke-width:2;stroke-opacity:1"
       id="circle3075"
       d="m 382,431 c 0,5.52285 -4.47715,10 -10,10 -5.52285,0 -10,-4.47715 -10,-10 0,-5.52285 4.47715,-10 10,-10 5.52285,0 10,4.47715 10,10 z" />
    <rect
       style="stroke:#66ffff;stroke-width:1;stroke-linecap:butt;stroke-linejoin:round;stroke-miterlimit:4;stroke-opacity:1;stroke-dasharray:none"
       id="rect3845"
       width="13.112183"
       height="9.3146973"
       x="372.83432"
       y="431.10165" />
    <ellipse
       cx="75"
       cy="75"
       rx="20"
       ry="5"
       style="stroke:#ff0000;stroke-width:2;stroke-opacity:1"
       id="ellipse3077"
       d="m 95,75 c 0,2.761424 -8.954305,5 -20,5 -11.045695,0 -20,-2.238576 -20,-5 0,-2.761424 8.954305,-5 20,-5 11.045695,0 20,2.238576 20,5 z"
       sodipodi:cx="75"
       sodipodi:cy="75"
       sodipodi:rx="20"
       sodipodi:ry="5"
       transform="matrix(1.0022727,0,0,0.90909091,259.82955,390.31818)" />
    <line
       x1="350"
       y1="350"
       x2="410"
       y2="450"
       style="stroke:#ff8888;stroke-width:2;stroke-opacity:1"
       id="line3079" />
  </g>
</svg>
